<?xml version="1.0" encoding="utf-8"?>
<!-- Generator: Adobe Illustrator 27.0.1, SVG Export Plug-In . SVG Version: 6.00 Build 0)  -->
<svg version="1.1" id="Layer_1" xmlns="http://www.w3.org/2000/svg" xmlns:xlink="http://www.w3.org/1999/xlink" x="0px" y="0px"
	 viewBox="0 0 353.1 425.2" style="enable-background:new 0 0 353.1 425.2;" xml:space="preserve">
<style type="text/css">
	.st0{opacity:0.48;fill:#FFFFFF;}
	.st1{fill:#21201E;}
	.st2{fill:#FFFFFF;}
	.st3{fill:#29325B;}
	.st4{fill-rule:evenodd;clip-rule:evenodd;fill:#21201E;}
</style>
<ellipse class="st0" cx="183.3" cy="407.2" rx="169.8" ry="12"/>
<g>
	<path class="st1" d="M111.5,249.7c0,0-118,2.9-111.2-74.5c1.1-12.3,17.5-52.7,42-5.4c1.6,3.2,2.3,7.2,7.7,12.5s70.4,43.4,70.4,43.4
		L111.5,249.7z"/>
	<path class="st1" d="M275.6,265.2c-5.9-23.5-15.2-41.4-15.2-41.4H121.2c0,0-9.3,17.8-15.2,41.4c22.2-12.3,52-19.8,84.8-19.8
		S253.4,252.9,275.6,265.2z"/>
	<path class="st2" d="M190.4,377h0.8c94.2-5.1,95.2-68.2,84.4-111.8c-22.2-12.3-52-19.8-84.8-19.8s-62.6,7.5-84.8,19.8
		C95.2,308.8,96.2,371.9,190.4,377z"/>
	<path class="st1" d="M275.5,265.2c-5.9-23.5-15.2-41.4-15.2-41.4s98.4,94.5,16.3,101.7l0,0C282.6,305.9,280.1,283.8,275.5,265.2z"
		/>
	<path class="st1" d="M118.5,349.9L118.5,349.9c0,0,0.8,36.3-4.6,41.4c-5.4,5.1-4.9,9.9-4.9,9.9c3,15.8,48,12.4,61.9,10.5
		c11.6-1.6,11.2-27,10.7-35.4C150.6,373.3,130.7,363.3,118.5,349.9z"/>
	<path class="st1" d="M264.2,391.3c-4.4-4.1-4.7-28.6-4.6-37.8c-12.9,12.1-32.9,20.8-63.1,23.2c-0.5,8.7-0.7,33.5,10.7,35.1
		c13.9,1.9,58.9,5.3,61.9-10.5C269.1,401.2,269.6,396.3,264.2,391.3z"/>
	<path class="st3" d="M74.3,92.6c21.2,8.1,47.9-4.1,59.7-27.4c11.8-23.2,4.2-48.7-16.9-56.8c-21.2-8.1-47.9,4.2-59.7,27.4
		C45.6,59,53.2,84.5,74.3,92.6z"/>
	<path class="st3" d="M307.3,92.6c-21.2,8.1-47.9-4.1-59.7-27.4c-11.8-23.2-4.2-48.7,16.9-56.8c21.2-8.1,47.9,4.2,59.7,27.4
		C336.1,59,328.5,84.5,307.3,92.6z"/>
	<g>
		<path class="st2" d="M319.6,152.7c0,64.3-57.8,81.1-129.2,81.1c-71.3,0-129.2-16.8-129.2-81.1C61.3,88.4,119.1,1,190.5,1
			C261.8,1,319.6,88.4,319.6,152.7z"/>
	</g>
	<g>
		<path class="st4" d="M197.6,193.3c-4.1,0.6-12-0.5-15.3-1.2c-2.5-0.6-4.5-2-4.7-4.5c-0.2-2.4,1.1-4.2,3.3-5.5
			c0.5-0.3,1.1-0.8,1.6-0.9c6.7-2.8,15.6-2.8,23.2,0.9c2.4,1.1,4.1,2.6,3.8,5.1c-0.2,2.4-2,4.1-4.4,4.8
			C202.8,192.5,200.2,192.9,197.6,193.3"/>
		<path class="st1" d="M192.2,192.8c0.4,3.8,0.1,7.6,0,11.4c0,2.1,3.6,2.1,3.6,0c0.1-3.8,0.4-7.6,0-11.4
			C195.7,190.7,192,190.7,192.2,192.8L192.2,192.8z"/>
		<path class="st1" d="M182.8,202.2c6.3,5.4,15.8,5.2,21.7-0.6c1-0.9-0.6-2.3-1.5-1.4c-5.2,5-13.1,5.4-18.6,0.6
			C183.3,199.9,181.8,201.3,182.8,202.2L182.8,202.2z"/>
	</g>
	<path class="st1" d="M124.3,81.7c0,0-41.7,6.2-50.1,63.3c-8.4,57.1,60,46.2,60,46.2s23.9-4,25.1-41.1
		C160.3,112.9,160.9,77.8,124.3,81.7z"/>
	<path d="M105.8,163.1c0,8.5,6.9,15.4,15.4,15.4c8.5,0,15.4-6.9,15.4-15.4s-6.9-15.4-15.4-15.4C112.7,147.8,105.8,154.6,105.8,163.1
		z"/>
	<circle class="st2" cx="115.8" cy="160.8" r="5.1"/>
	<path class="st2" d="M115.6,171.3c0,1,0.8,1.9,1.9,1.9c1,0,1.9-0.8,1.9-1.9s-0.8-1.9-1.9-1.9C116.5,169.5,115.6,170.3,115.6,171.3z
		"/>
	<path class="st1" d="M263.1,81.7c0,0,41.7,6.2,50.1,63.3c8.4,57.1-60,46.2-60,46.2s-23.9-4-25.1-41.1
		C227,112.9,226.5,77.8,263.1,81.7z"/>
	<circle cx="266.2" cy="163.1" r="15.4"/>
	<circle class="st2" cx="271.5" cy="160.8" r="5.1"/>
	<path class="st2" d="M271.7,171.3c0,1-0.8,1.9-1.9,1.9s-1.9-0.8-1.9-1.9s0.8-1.9,1.9-1.9S271.7,170.3,271.7,171.3z"/>
</g>
</svg>
